<?xml version="1.0" encoding="utf-8"?>
<!-- Generator: Adobe Illustrator 19.0.0, SVG Export Plug-In . SVG Version: 6.00 Build 0)  -->
<svg version="1.1" id="Layer_1" xmlns="http://www.w3.org/2000/svg" xmlns:xlink="http://www.w3.org/1999/xlink" x="0px" y="0px"
	 width="612px" height="420px" viewBox="0 200 612 420" style="enable-background:new 0 0 612 792;" xml:space="preserve">
<style type="text/css">
	.st0{fill:#FFFFFF;}
</style>
<g id="XMLID_1_">
	<path id="XMLID_213_" d="M335.409,426.91c0,1.626,0,3.077,0,4.379c-1.679,2.453-4.074,1.012-6.545,1.658
		c-9.259,4.82-17.473,11.869-25.634,19.405c2.151,3.374,3.964,6.886,6.412,9.878c2.624,3.207,4.206,7.022,6.87,10.23
		c2.442,2.94,4.922,6.093,6.128,9.906c4.729,4.909,7.781,11.287,14.01,15.469c6.157,1.103,6.157,1.103,10.605-3.346
		c2.189-8.207,1.05-16.454,1.217-24.632c0.167-8.16,0.029-16.326,0.04-24.49c0.005-3.612-1.643-6.762-3.59-9.465
		c-1.23-1.709-3.889-2.388-6.223-3.708c0-1.144,0-2.712,0-4.459c2.272,0,4.417,0.055,6.558-0.016
		c2.062-0.068,4.038,0.012,6.146-0.828c2.012-0.802,4.93,0.404,6.733-0.582c1.975-1.08,4.064,0.178,6.005-1.409
		c1.322-1.081,3.912-0.61,6.367-0.88c0,0.711,0,1.65,0,2.589c0,19.492,0.039,38.985-0.033,58.477
		c-0.014,3.886,0.091,7.673,2.59,11.549c1.665,0.709,3.93,1.673,6.348,2.702c0,1.188,0,2.639,0,4.398
		c-6.38,0-12.678,0.2-18.958-0.047c-9.397-0.369-18.669,1.489-28.08,1.127c-9.482-0.365-18.989-0.08-28.486-0.08
		c-1.655,0-3.309,0-4.881,0c-0.554-0.554-1.025-1.025-1.497-1.496c-0.001-0.999-0.001-1.998-0.001-3.364
		c2.317-1.136,4.769-2.338,7.303-3.58c-4.677-10.408-11.817-18.634-17.76-28.165c-1.973,1.074-3.581,1.949-5.386,2.932
		c-0.72,7.682,0.192,15.464,1.167,23.496c1.933,1.863,3.812,4.473,7.269,4.264c0.466,0.92,0.882,1.742,1.449,2.862
		c-0.421,0.857-0.964,1.961-1.5,3.052c-11.87,0-23.698-0.032-35.526,0.026c-2.481,0.012-4.8-0.178-6.626-2.132
		c-2.991,1.267-5.918,2.378-9.213,2.141c-2.486-0.178-5.01,0.135-7.491-0.073c-4.271-0.358-8.047-1.871-10.876-5.968
		c0-0.307,0-1.089,0-2.019c-0.651,0.107-1.271,0.017-1.514,0.278c-2.867,3.072-6.206,5.444-10.093,7.044
		c-2.182,0.898-4.315,1.842-6.793,1.734c-2.993-0.131-5.997-0.083-8.995-0.021c-7.052,0.146-12.252-3.414-16.334-8.63
		c-1.88-2.403-3.248-5.313-3.149-8.691c0.049-1.683-0.684-3.376-0.909-5.085c-0.212-1.607,1.259-2.826,1.069-4.591
		c-0.141-1.31,0.453-2.758,0.943-4.06c0.431-1.148,1.009-2.318,1.8-3.24c4.451-5.184,9.899-8.825,16.526-10.75
		c4.209-1.223,8.573-1.747,12.749-3.008c3.883-1.173,8.081-1.051,11.762-2.962c0.697-0.361,1.35-0.807,2.127-1.276
		c0-4.516,0.335-9.024-0.096-13.457c-0.416-4.274-1.642-8.46-7.093-10.251c-4.086,0.06-8.999-0.663-13.812,2.609
		c-1.227,1.547-1.078,3.727-0.007,5.978c0.197,0.415,0.325,0.872,0.421,1.323c0.552,2.614,2.539,4.838,0.727,8.006
		c-1.477,2.581-2.903,4.81-6.198,6.075c-1.423,0-3.434-0.15-5.414,0.035c-3.055,0.285-5.468-0.931-7.15-3.227
		c-4.464-6.096-4.794-10.652,0.087-16.609c5.101-6.224,9.761-7.656,18.094-9.335c7.075-1.426,14.125-1.07,21.095-0.684
		c8.372,0.464,15.673,4.115,19.798,11.95c1.1,2.089,1.603,4.724,1.588,7.342c-0.083,14.327-0.029,28.655-0.048,42.983
		c-0.004,2.901,1.065,5.492,1.925,8.195c0.802,2.52,2.81,2.894,4.686,3.266c1.916,0.38,3.966,0.084,5.853,0.084
		c3.855-2.185,5.558-5.432,5.555-9.714c-0.02-25.823-0.046-51.646,0.051-77.469c0.009-2.328-0.82-4.35-1.297-6.495
		c-0.523-2.352-2.393-3.594-4.581-4.311c-1.318-0.432-2.672-0.757-4.073-1.148c0-1.594,0-3.044,0-4.634
		c10.633-0.638,21.16-2.036,31.891-4.374c0,12.322,0,24.279,0,36.236c0,11.94,0,23.881,0,36.632
		c10.123-8.251,18.94-16.629,27.032-25.634c-2.146-4.445-7.186-3.505-9.932-6.456c0-1.048,0-2.165,0-3.458
		C310.773,426.91,322.888,426.91,335.409,426.91z M219.622,461.354c-2.12,0.548-3.717,1.22-5.352,1.335
		c-4.905,0.343-8.813,2.985-12.628,5.565c-2.608,1.764-4.259,4.741-5.053,7.79c-0.942,3.619-1.592,7.209-0.266,11.165
		c0.96,2.862,1.696,5.133,4.573,6.601c2.633,1.344,5.235,2.291,8.148,1.834c1.172-0.184,2.256-0.931,3.557-1.499
		c1.849-1.849,3.845-3.844,5.844-5.84C220.601,479.583,218.975,470.746,219.622,461.354z"/>
	<path id="XMLID_208_" d="M443.536,367.627c0,1.215,0,2.873,0,4.834c0.326,0.278,0.896,0.649,1.323,1.143
		c3.273,3.785,7.471,5.351,12.376,5.113c2.487-0.121,4.59,0.875,7.129,1.913c0.816-1.187,2.125-2.471,2.688-4.026
		c1.641-4.535,5.408-7.242,8.626-10.377c0.845-0.824,2.463-1.17,3.791-1.621c4.005-1.361,8.002-2.169,12.211-1.865
		c3.847,0.278,7.369,1.673,10.284,4.066c2.622,2.152,5.287,4.499,6.723,7.672c2.08,4.594,3.607,9.114,2.241,14.556
		c-1.385,5.519-4.117,9.827-7.885,13.716c-3.678-0.449-6.997,1.476-10.67,1.067c-3.456-0.385-6.989-0.083-10.488-0.083
		c-0.988,0-1.976,0-2.753,0c-5.593-2.752-7.549-8.044-10.064-12.96c-18.965,0-37.949,0-56.951,0
		c-2.788-3.194-5.568-6.379-8.514-9.754c2.075-3.312,4.796-6.645,6.361-10.452c1.45-3.527,2.977-7.063,3.707-10.999
		c1.525-8.223,1.023-16.455,0.614-24.598c-0.298-5.94-2.165-11.868-4.488-17.554c-2.353-5.76-5.723-10.685-9.472-15.622
		c-4.604-6.062-10.381-9.99-17.071-13.119c-3.159-1.477-6.508-2.029-9.792-2.903c-2.128-0.567-4.373-0.685-6.527-1.173
		c-0.55-0.125-0.954-0.891-1.464-1.4c4.204-14.252,7.555-28.77,12.471-43.401c0.631-0.631,1.691-1.691,3.074-3.074
		c6.077-0.128,11.927,2.925,18.389,3.173c0.059,1.168,0.116,2.289,0.185,3.658c4.78,3.426,10.958,2.952,16.498,5.325
		c0.876-1.09,1.805-2.246,2.523-3.14c3.007,0.737,5.625,1.209,8.121,2.044c2.057,0.688,4.197,0.966,6.258,1.769
		c2.501,0.975,4.459,2.146,5.672,5.913c-0.688,2.968-1.635,7.093-2.603,11.212c-1.635,6.955-4.08,13.684-5.65,20.671
		c-0.733,3.264-0.834,7.079-4.735,9.398c-0.957,0-2.408,0-3.682,0c-0.53,0.53-0.883,0.883-1.237,1.236
		c-0.084,0.299-0.239,0.597-0.24,0.896c-0.012,14.162,0.054,28.325-0.056,42.487c-0.027,3.53,0.782,7.149-0.887,10.615
		c-0.448,0.93-0.068,2.259-0.068,3.252c0.505,0.505,0.858,0.858,1.356,1.356c1.966,0,4.086,0,5.627,0
		c4.077-1.096,5.794-4.181,7.518-6.972c3.512-5.687,6.524-11.68,10.32-17.204c-0.859-2.377,1.898-3.144,2.26-5.08
		c0.303-1.621,1.306-3.112,1.969-4.594c-2.829-5.173-8.812-5.27-13.238-8.35c4.77-7.676,9.447-15.2,14.117-22.715
		c14.407,8.454,28.054,17.313,43.161,24.607c-0.244,0.774-0.377,1.853-0.888,2.704c-2.646,4.414-5.478,8.718-8.066,13.165
		c-1.548,2.661-2.712,5.542-4.161,8.265c-0.661,1.241-1.593,2.337-2.457,3.577c-1.898-0.938-3.554-1.756-5.384-2.66
		c0-0.792,0-1.755,0-2.203c-2.277-2.277-4.23-4.23-6.43-6.43c-1.085,0.893-1.971,2.239-3.021,3.672
		c-5.573,7.61-9.86,16.042-15.393,23.671c-1.139,1.571-1.538,3.677-2.295,5.53C444.27,366.147,443.978,366.695,443.536,367.627z
		 M394.551,283.967c2.735,0.306,6.078,0.679,8.657,0.967c4.208-1.906,6.603-4.598,8.301-7.963c0-7.319-0.999-9.077-7.902-13.479
		c-2.99,0.334-6.332,0.708-8.684,0.971c-4.748,2.674-5.311,6.745-6.339,10.27C389.713,278.277,390.908,281.571,394.551,283.967z
		 M490.796,393.736c0.728-0.48,1.113-0.757,1.518-0.997c2.861-1.696,5.607-6.374,5.195-8.867c-0.509-3.08-4.941-7.587-8.001-8.136
		c-2.643-0.474-6.831,1.069-7.9,3.533c-1.087,2.506-3.076,4.941-1.917,7.976c1.262,3.099,3.59,5.138,6.578,6.491
		C487.759,393.736,489.249,393.736,490.796,393.736z M466.828,313.575c-1.73-0.336-3.746-0.728-5.563-1.082
		c-2.129,2.038-3.971,3.85-3.758,6.534c1.264,1.349,2.398,2.558,3.125,3.334c2.827,0.899,4.892,0.135,6.247-0.718
		C469.085,318.878,468.809,316.508,466.828,313.575z"/>
	<path id="XMLID_207_" d="M241.439,520.736c1.115,0,2.06,0,3.005,0c26.826,0,53.651-0.003,80.477,0.007
		c1.599,0.001,3.387-0.514,4.329,1.179c-1.47,3.909-0.777,7.861-0.628,11.68c0.121,3.102,0.591,6.281,1.562,9.308
		c2.259,7.036,6.019,13.268,11.362,18.252c13.19,12.301,28.939,16.44,47.425,9.37c9.692-3.707,17.055-10.954,21.732-20.499
		c4.517-9.218,6.344-18.826,3.544-29.1c29.697,0,58.927,0,88.56,0c-0.399,0.847-0.528,1.494-0.916,1.885
		c-5.157,5.211-10.026,10.773-15.628,15.457c-5.227,4.371-10.796,8.418-16.156,12.635c-9.443,7.429-20.073,12.533-30.675,17.8
		c-3.028,1.504-6.165,2.825-9.341,3.989c-3.19,1.169-6.481,2.065-9.742,3.031c-5.855,1.735-11.721,3.276-17.817,4.158
		c-4.388,0.635-8.844,1.154-13.152,2.034c-5.588,1.142-11.089,0.591-16.62,0.774c-5.492,0.182-11.095,0.689-16.467-0.137
		c-5.755-0.884-11.754-0.264-17.328-2.711c-1.61-0.707-3.742-0.746-5.553-0.943c-4.912-0.535-9.396-2.265-13.992-3.754
		c-9.264-3.002-18.184-6.792-26.777-11.389c-4.959-2.653-9.707-5.64-14.339-8.794c-4.752-3.234-9.325-6.683-13.766-10.401
		c-6.749-5.651-12.473-12.259-18.849-18.232C244.106,524.851,243.012,522.843,241.439,520.736z"/>
	<path id="XMLID_206_" d="M82.836,504.562c-0.527-0.527-0.88-0.88-1.197-1.197c0-1.491,0-2.945,0-4.332
		c1.786-0.501,3.432-0.962,5.233-1.466c0.967-1.058,2.076-2.271,3.638-3.98c0-3.177-0.058-7.157,0.031-11.133
		c0.031-1.395-0.629-2.978,0.842-4.163c0.257-0.207,0.184-0.947,0.112-1.418c-0.369-2.394-1.353-4.49-0.195-7.258
		c1.008-2.41,0.21-5.576,0.21-8.407c0-2.665,0.12-5.338-0.043-7.993c-0.105-1.708-0.748-3.379-0.921-5.089
		c-0.166-1.639-0.036-3.308-0.036-4.564c-1.817-3.139-2.665-6.652-6.492-7.595c-3.922-0.536-7.793-0.215-11.512,1.733
		c-3.892,2.039-4.677,6.18-6.662,9.308c-2.102,11.694-1.245,23.407-1.266,35.081c-0.007,4.015,0.771,8.031,1.232,12.454
		c0.857,0.814,2.06,1.958,2.927,2.782c2.14,0.587,3.937,1.08,5.649,1.55c0,1.713,0,3.166,0,4.486
		c-0.478,0.478-0.831,0.831-1.28,1.28c-13.35,0-26.796,0-40.266,0c-0.519-1.328-1.023-2.62-1.46-3.738
		c0.672-1.578,1.573-2.06,3.084-2.232c4.471-0.509,7.034-3.537,7.039-8.024c0.02-17.151,0.008-34.303,0.008-50.19
		c-1.293-5.608-5.459-6.158-8.848-7.798c0-1.565,0-3.013,0-4.922c2.485,0,5.095-0.028,7.704,0.007
		c3.896,0.051,7.635-1.655,11.579-1.007c1.762-1.949,4.174-0.338,6.052-1.077c2.025-0.796,3.978-1.11,6.241-0.791
		c0.826,2.135-0.202,4.628,1.122,6.929c0.581,1.01-0.469,2.959-0.794,4.561c1.048,0.623,1.195-0.61,1.735-0.956
		c0.548-0.352,0.995-0.886,1.425-1.392c3.47-4.082,5.095-5.212,10.357-7.371c1.281-0.525,2.414-1.603,3.721-1.839
		c3.977-0.72,8.07-1.844,12.047-0.971c6.296,1.382,12.613,3.073,15.926,9.623c0.612,1.211,1.669,2.198,2.519,3.286
		c0.311-0.07,0.78-0.037,0.895-0.223c1.79-2.894,4.229-5.028,6.952-7.096c3.101-2.355,6.532-3.539,10.087-4.692
		c4.288-1.39,8.726-1.255,13.075-0.913c5.914,0.464,13.281,4.645,16.104,10.318c0.688,1.382,1.731,2.684,2.03,4.142
		c0.576,2.811,1.001,5.704,1.025,8.567c0.106,12.492,0.018,24.986,0.065,37.479c0.012,3.214-0.69,6.527,1.021,9.528
		c1.213,1.1,2.425,2.201,4.124,3.743c0.978,0.26,2.779,0.738,4.69,1.245c0,1.061,0,2.015,0,3.544
		c-0.645,0.466-1.702,1.231-3.244,2.346c-12.149,0-25.139,0-38.271,0c-0.497-1.247-1.011-2.533-1.672-4.192
		c0.927-0.638,1.758-1.686,2.616-1.71c2.445-0.066,4.463-0.949,5.835-2.798c1.308-1.765,1.9-3.922,1.892-6.199
		c-0.025-6.663-0.009-13.326-0.009-19.989c0-5.83-0.22-11.672,0.08-17.486c0.188-3.639-0.947-7.03-1.158-10.579
		c-0.179-3.012-3.87-5.917-7.021-6.023c-2.154-0.072-4.312-0.014-6.401-0.014c-0.303,0.303-0.502,0.684-0.779,0.752
		c-5.365,1.325-6.972,5.84-8.711,10.231c-0.397,1.003-0.835,2.032-0.969,3.085c-0.168,1.311,0.017,2.663-0.05,3.992
		c-0.262,5.197-1.343,10.315-1.052,15.581c0.285,5.148-0.041,10.327,0.096,15.487c0.101,3.784,0.957,7.457,2.425,11.23
		c2.379,1.031,4.781,2.072,7.412,3.212c0,1.117,0,2.569,0,4.058c-0.317,0.317-0.67,0.67-1.197,1.197
		C109.246,504.562,96.132,504.562,82.836,504.562z"/>
	<path id="XMLID_203_" d="M31.51,310.537c0-1.304,0-2.303,0-3.303c0.471-0.471,0.943-0.942,1.368-1.367
		c5.063-0.38,10.19-0.23,15.055-1.286c4.419-0.96,9.105-0.722,13.311-2.789c0.789-0.388,1.932-0.055,3.262-0.055
		c0,3.706,0,7.289,0,10.997c2.645-2.104,5.033-3.942,7.352-5.861c4.925-4.075,10.392-6.577,16.952-6.145
		c3.044,0.2,6.028-0.042,9.112,0.906c8.274,2.543,14.134,6.63,17.586,13.209c1.005,1.915,1.784,3.997,3.061,5.709
		c1.317,1.766,1.07,3.896,1.735,5.785c1.09,3.094,1,6.642,1.168,10.01c0.166,3.323,0.574,6.771-0.077,9.97
		c-1.323,6.506-2.309,13.055-5.728,19.117c-3.148,5.582-6.81,10.129-12.376,13.357c-5.926,3.436-16.346,6.383-21.92,4.841
		c-5.885-1.628-12.225-2.62-16.863-8.565c0,7.869-0.404,14.862,0.138,21.782c0.381,4.871,1.788,9.806,8.1,11.86
		c0.533,0,1.858,0,3.353,0c0.459,1.082,1.178,2.173,1.325,3.336c0.102,0.803-0.588,1.706-0.974,2.691
		c-6.676,0-13.269,0.802-19.576-0.201c-8.049-1.28-16.055-0.16-24.201-0.985c0-1.418,0-2.876,0-4.572
		c1.243-0.458,2.689-0.991,5.134-1.892c-0.175,0.204,0.314-0.475,0.91-1.041c1.969-1.87,2.85-4.031,2.84-6.846
		c-0.085-24.821-0.049-49.642-0.049-74.463c0-0.999-0.055-2.003,0.011-2.998c0.173-2.634-0.999-4.938-2.114-7.115
		c-0.635-1.239-2.216-2.131-3.553-2.832C34.647,311.159,33.193,310.999,31.51,310.537z M64.509,345.938
		c0.536,4.875-0.38,10.708,0.798,16.631c0.926,4.656,3.052,8.124,6.491,10.754c1.849,1.414,4.561,2.01,6.962,2.283
		c1.534,0.174,3.261-0.804,4.81-1.477c1.554-0.675,3.25-1.353,4.417-2.503c1.428-1.406,2.415-3.276,3.513-4.997
		c2.713-4.25,4.042-9.176,4.788-13.932c0.795-5.066,1.979-10.272,1.211-15.524c-0.273-1.867-0.954-3.725-0.917-5.576
		c0.048-2.459-0.403-4.789-1.102-7.066c-1.911-6.232-4.673-9.596-9.174-11.498c-3.915-1.655-7.09-1.92-11.004-0.239
		c-3.107,1.334-5.458,3.608-7.166,6.716c-2.335,4.25-3.091,8.855-3.547,13.49C64.201,336.954,64.509,340.978,64.509,345.938z"/>
	<path id="XMLID_200_" d="M242.009,285.736c-0.704-0.704-1.058-1.058-1.735-1.735c0.755-0.599,1.571-1.136,2.255-1.808
		c2.735-2.683,5.677-5.209,8.069-8.175c2.324-2.882,5.247-5.062,7.854-7.586c3.935-3.809,8.221-7.285,12.579-10.614
		c2.249-1.718,4.721-3.142,6.938-4.963c2.784-2.287,6.025-4.028,9.081-5.868c3.012-1.814,5.983-3.853,9.275-5.277
		c8.488-3.672,16.972-7.294,25.825-10.079c4.277-1.346,8.67-2.271,12.919-3.758c2.139-0.748,4.699-0.221,7.064-1.055
		c2.056-0.725,4.351-0.851,6.557-1.052c2.062-0.188,4.139,0.167,6.12-0.96c0.755-0.43,1.959-0.07,2.959-0.07
		c7.997,0,15.996-0.113,23.99,0.044c4.532,0.089,9.198,0.046,13.539,1.127c3.919,0.975,8.226,0.464,11.795,2.829
		c4.091-0.509,7.704,1.645,11.649,2.144c3.291,0.416,6.436,2.056,9.62,3.223c3.18,1.166,6.376,2.308,9.478,3.662
		c3.53,1.541,6.91,3.426,10.45,4.941c4.752,2.033,8.975,4.957,13.302,7.683c5.316,3.35,10.499,6.925,15.599,10.598
		c2.621,1.888,4.943,4.194,7.389,6.322c2.321,2.02,4.098,4.608,6.969,6.085c1.216,0.625,1.981,2.119,2.962,3.209
		c1.967,2.186,3.799,4.519,5.941,6.519c6.399,5.975,11.116,13.268,15.995,20.399c3.328,4.864,6.26,10.03,9.006,15.252
		c2.648,5.036,4.799,10.331,7.11,15.54c2.32,5.232,4.006,10.694,5.802,16.08c1.676,5.025,1.71,10.588,3.296,15.655
		c1.066,3.404,0.668,6.864,1.648,10.272c0.929,3.232-0.362,7.059,0.347,10.408c0.824,3.897,0.947,7.734,0.813,11.611
		c-0.163,4.699-0.551,9.396-1.013,14.076c-0.115,1.161-0.89,2.258-1.331,3.31c-1.82-0.463-3.488-0.888-5.175-1.318
		c0.16-0.914,0.527-2.053,0.533-3.194c0.047-9.496,0.413-19.015-0.128-28.48c-0.293-5.116-0.84-10.375-2.623-15.349
		c-0.422-1.178-0.057-2.617-0.254-3.905c-0.186-1.217-0.641-2.393-0.967-3.589c-2.115-7.757-3.801-15.63-7.264-22.984
		c-2.228-4.732-4.005-9.663-6.346-14.367c-2.997-6.022-6.579-11.655-10.312-17.215c-4.562-6.795-9.661-13.138-15.091-19.288
		c-4.591-5.2-9.702-9.818-14.796-14.406c-6.122-5.514-12.879-10.34-19.743-14.954c-0.4-0.269-0.699-0.709-1.118-0.927
		c-6.44-3.351-12.767-6.958-19.374-9.943c-8.443-3.814-17.124-6.976-26.185-9.246c-4.952-1.24-9.96-2.423-14.917-3.684
		c-4.018-1.023-8.438-0.387-12.527-1.227c-8.518-1.75-17.071-0.534-25.596-0.852c-2.013-0.075-4.057,0.586-6.08,0.945
		c-2.028,0.361-4.028-0.467-6.196,0.788c-1.754,1.015-4.477-0.354-6.472,1.206c-3.302-0.461-6.167,0.998-9.184,1.948
		c-3.115,0.982-6.433,1.333-9.528,2.362c-2.935,0.976-6.018,1.685-8.795,2.883c-7.638,3.294-15.176,6.894-22.462,10.904
		c-4.646,2.556-9.086,5.578-13.388,8.748c-3.894,2.87-7.826,5.652-11.219,9.163c-1.937,2.005-4.298,3.6-6.535,5.435
		c0.456,0.358,0.582,0.544,0.708,0.544c20.32,0.013,40.64,0.012,61.457,0.012c-0.473-1.201-1.849-1.711-1.942-2.532
		c-0.158-1.388-1.309-1.819-1.859-2.761c-1.323-2.268-3.055-4.266-3.323-7.145c-0.226-2.428-2.132-4.787,0.086-7.177
		c1.683-6.615,6.047-11.599,12.293-13.043c2.816-0.651,5.907-0.11,8.578-0.11c7.443,1.922,11.695,7.014,13.002,14.016
		c1.338,7.166-1.565,13.344-7.317,18.652c2.445,0,4.234,0,5.852,0c3.677,3.847,3.677,3.847,3.484,10.677
		c-5.852,2.061-11.919,1.399-17.918,1.406C302.994,285.756,272.503,285.736,242.009,285.736z M335.357,264.736
		c1.39-1.85,2.906-3.866,4.193-5.578c-0.549-1.622-0.944-2.79-1.28-3.783c-1.14-1.287-2.229-2.517-3.185-3.596
		c-2.548,0-4.854,0-7.078,0c-3.142,2.61-2.469,6.128-2.485,9.383c1.195,1.23,2.348,2.415,3.475,3.574
		C330.869,264.736,332.691,264.736,335.357,264.736z"/>
	<path id="XMLID_199_" d="M413.509,435.732c2.996-2.461,5.563-4.908,8.458-6.87c4.597-3.117,9.646-5.202,15.362-5.129
		c1.5,0.019,3.004,0.076,4.499-0.011c4.958-0.288,9.492,1.459,13.196,4.259c4.366,3.301,6.673,8.099,7.607,13.788
		c1.375,8.378,0.681,16.74,0.843,25.105c0.161,8.33,0.035,16.665,0.035,24.926c0.797,1.569,1.565,3.081,2.439,4.801
		c1.893,0.782,4.028,1.663,6.407,2.646c0,1.121,0,2.577,0,4.143c-0.362,0.362-0.834,0.834-1.326,1.326c-12.973,0-25.967,0-39.108,0
		c-0.34-1.097-0.699-2.257-1.123-3.625c0.199-0.355,0.554-0.989,1.235-2.204c1.675-0.647,3.956-1.527,6.156-2.377
		c1.844-3.519,2.414-7.19,2.367-11.106c-0.136-11.498-0.189-23.001,0.043-34.495c0.064-3.151-0.726-6.07-1.157-9.078
		c-0.491-3.421-3.947-6.072-7.484-6.071c-2.446,0.001-4.937-0.012-7.329,0.42c-3.752,0.677-6.199,3.456-8.045,6.458
		c-1.969,3.2-3.203,6.713-3.139,10.71c0.179,11.163,0.134,22.332,0.016,33.496c-0.033,3.104,0.298,6.046,1.57,8.946
		c2.332,2.348,6.416,1.6,8.676,4.805c-0.415,1.164-0.882,2.475-1.475,4.139c-3.148,0-6.437,0-9.725,0
		c-8.333,0-16.666-0.042-24.998,0.029c-2.136,0.018-4.139-0.15-5.958-1.474c0-1.289,0-2.611,0-4.215
		c2.143-0.826,4.418-1.702,6.585-2.537c0.723-1.465,1.406-2.851,2.372-4.807c0-15.67,0.031-31.984-0.046-48.297
		c-0.008-1.693-0.654-3.383-0.981-4.961c-2.025-3.237-5.302-4.503-8.521-5.567c-0.376-3.202-0.376-3.202,0.832-4.929
		c5.071-0.417,10.151-0.43,15.058-1.355c4.747-0.895,9.782-0.462,14.12-2.663c0.755,0.343,1.46,0.663,2.536,1.152
		C413.509,428.443,413.509,432.028,413.509,435.732z"/>
	<path id="XMLID_196_" d="M548.509,462.888c-2.166,0.297-4.174,0.802-6.185,0.811c-14.81,0.068-29.621,0.037-44.815,0.037
		c0,3.218-0.609,6.49,0.137,9.417c1.257,4.931,2.474,9.996,6.491,13.814c2.949,2.803,5.901,5.301,10.053,5.972
		c0.907,0.147,1.78,0.769,2.663,0.757c4.209-0.058,8.429,0.449,12.598-0.902c3.307-1.071,6.442-2.38,9.07-4.626
		c2.001-1.711,3.759-3.704,5.484-5.43c0.776,0,1.372-0.174,1.754,0.038c0.683,0.379,1.238,0.99,2.021,1.652
		c-1.689,5.35-4.62,9.803-8.922,13.272c-1.932,1.558-4.099,2.902-6.33,3.995c-4.2,2.059-8.456,3.863-13.307,4.166
		c-2.331,0.146-4.651,1.173-7.088,0.865c-2.201-0.278-4.425-1.063-6.574-0.876c-2.241,0.195-4.053-0.85-6.081-1.184
		c-2.109-0.347-4.382-0.865-6.132-2.003c-5.445-3.541-10.726-7.12-13.964-13.297c-3.677-7.015-6.075-14.133-5.878-22.07
		c0.033-1.332,0.005-2.665,0.005-3.998c0-1.999-0.585-4.235,0.109-5.953c2.139-5.294,2.402-11.165,5.753-16.132
		c3.355-4.973,6.855-9.571,12.219-12.482c1.772-0.962,3.4-2.497,5.279-2.892c4.332-0.911,8.534-2.71,13.149-2.146
		c2.134,0.261,4.333,0.156,6.49,0.024c6.419-0.395,12.122,1.861,17.384,5.083c6.412,3.926,11.067,9.476,13.042,16.904
		c0.726,2.73,1.805,5.394,1.612,8.35C548.373,456.705,548.509,459.38,548.509,462.888z M525.496,456.629
		c1.028-2.566,2.532-5.421,1.862-8.347c-0.508-2.216-0.46-4.438-0.931-6.57c-0.873-3.953-2.77-7.849-6.362-9.645
		c-2.91-1.454-6.258-4.085-10.098-1.402c-0.668,0.467-1.943,0.066-2.565,0.066c-9.419,6.462-10.426,15.799-9.763,25.897
		C506.882,456.629,515.97,456.629,525.496,456.629z"/>
	<path id="XMLID_193_" d="M168.66,327.384c0.65-1.359,1.429-2.561,1.815-3.878c1.18-4.023,3.445-7.359,6.192-10.434
		c3.778-4.228,8.199-7.529,13.539-9.546c1.439-0.543,2.789-1.408,4.267-1.741c2.318-0.522,4.702-0.813,7.073-1.019
		c1.819-0.157,3.663-0.074,5.494-0.022c3.115,0.089,6.276-0.057,9.327,0.449c2.869,0.476,5.827,1.275,8.374,2.631
		c4.085,2.175,8.061,4.786,10.706,8.704c1.979,2.93,3.254,6.327,5.106,9.354c1.482,2.421,1.156,5.18,1.794,7.735
		c0.705,2.822,0.233,5.96,0.107,8.953c-0.029,0.692-0.734,1.355-1.186,2.131c-16.502,0-32.948,0-49.324,0
		c-0.371,0.869-0.671,1.571-1.017,2.381c0.177,1.16,0.524,2.478,0.556,3.803c0.116,4.833,1.334,9.353,4.015,14.339
		c1.973,3.669,4.637,6.005,8.709,7.722c1.277,0.538,2.475,1.603,3.764,1.699c2.403,0.179,4.531,1.448,7.083,1.153
		c7.05-0.814,13.392-3.144,18.737-7.877c1.743-1.543,3.313-3.281,5.097-5.066c1.109,0.639,2.261,1.303,3.436,1.98
		c-0.105,0.362-0.143,0.605-0.242,0.82c-0.515,1.12-1.042,2.234-1.572,3.347c-3.373,7.074-8.851,12.02-15.937,15.074
		c-3.267,1.408-6.723,2.302-10.359,2.869c-3.565,0.556-7.091,0.974-10.607,0.705c-3.917-0.3-7.913-0.843-11.634-2.034
		c-3.484-1.115-7.064-2.708-9.876-4.987c-5.889-4.772-10.589-10.593-12.611-18.198c-1.108-4.167-2.368-8.265-2.005-12.674
		c0.177-2.151,0.194-4.344-0.004-6.491C167.094,335.163,168.331,331.233,168.66,327.384z M218.014,312.741
		c-0.328-0.328-1.188-1.119-1.967-1.981c-1.944-2.151-4.243-3.279-7.237-3.058c-2.298,0.17-4.619,0.034-5.731,0.034
		c-6.3,1.902-8.505,5.93-9.974,10.799c-0.781,2.587-1.867,5.027-1.615,7.813c0.089,0.977,0.365,2.302-0.13,2.9
		c-1.52,1.839-0.624,3.632-0.738,5.477c9.343,0,18.321,0,26.756,0c1.323-1.031,2.346-1.828,2.98-2.322
		C220.94,325.538,220.327,319.322,218.014,312.741z"/>
	<path id="XMLID_190_" d="M393.509,340.707c-17.412,0-34.53,0-51.891,0c0.311,2.832,0.769,5.469,0.844,8.116
		c0.073,2.61,1.212,4.834,2.07,7.162c0.905,2.454,1.574,5.144,3.078,7.195c2.678,3.653,6.784,5.666,10.833,7.497
		c1.532,0.693,3.351,0.85,5.063,1.023c1.65,0.166,3.596,0.571,4.932-0.092c1.897-0.942,3.744-0.725,5.491-1.117
		c6.486-1.958,11.798-5.62,16.245-11.164c1.205,1.001,2.293,1.905,3.278,2.723c-0.356,0.663-0.679,1.196-0.937,1.759
		c-4.383,9.54-12.879,16.178-23.04,18.069c-4.396,0.818-8.686,2.199-13.195,1.832c-11.373-0.927-21.729-4.305-29.489-13.239
		c-3.514-4.045-5.62-8.917-7.273-13.974c-0.697-2.132-1.1-4.287-1.079-6.583c0.017-1.859-0.547-3.733-0.94-5.582
		c-0.634-2.988,1.361-5.709,0.943-8.578c-0.418-2.871,0.333-5.675,1.232-8.033c2.67-7.003,5.21-14.337,12.558-18.206
		c3.858-4.32,9.362-5.442,14.424-7.425c0.287-0.112,0.564-0.324,0.854-0.34c5.199-0.281,10.344-1.698,15.581-0.985
		c5.102,0.694,10.316,1.62,14.774,4.101c5.251,2.922,9.583,7.334,12.519,12.603c1.691,3.034,2.591,6.713,3.006,10.201
		C393.893,331.904,393.509,336.244,393.509,340.707z M370.791,334.589c0.581-2.109,1.605-4.172,1.619-6.241
		c0.023-3.676-0.319-7.402-0.996-11.015c-0.383-2.043-1.439-4.14-2.74-5.779c-1.242-1.565-3.159-3.538-4.839-3.596
		c-2.682-0.092-5.413-2.948-8.123-0.222c-6.123-0.229-8.031,5.016-11.201,8.622c-1.545,5.933-2.473,11.962-3.107,18.231
		C351.13,334.589,360.548,334.589,370.791,334.589z"/>
	<path id="XMLID_189_" d="M133.137,314.863c-1.24-1.24-2.653-2.653-4.077-4.077c-1.532-0.238-3.399,0.531-4.45-1.616
		c0-1.238,0-2.689,0-4.127c5.252-0.442,10.422-0.719,15.548-1.353c4.982-0.616,10.017-1.099,15.218-2.609
		c0.408,0.48,1.145,1.345,2.133,2.505c0,25.188,0.245,50.828-0.162,76.458c-0.11,6.937-1.401,14.088-5.042,20.325
		c-2.72,4.659-5.679,9.022-11.024,11.478c-5.463,2.51-8.69,3.888-13.884,3.888c-1.166,0-2.334-0.047-3.497,0.008
		c-4.92,0.231-9.293-1.302-13.339-4.001c-2.806-1.871-5.139-5.931-6.152-9.133c-0.861-2.721-0.823-5.387-0.911-8.094
		c2.156-3.693,2.156-3.693,5.57-5.781c2.498,0,5.162,0.161,7.799-0.04c3.442-0.263,5.758,1.347,7.767,3.723
		c-0.833,5.298-5.62,8.561-6.241,13.721c1.281,1.183,2.5,2.308,3.993,3.686c1.383-0.115,3.25,0.028,4.926-0.471
		c3.456-1.029,4.118-4.339,5.173-7.211c0.48-1.307,0.831-2.697,0.987-4.078c0.168-1.48-0.301-3.09,0.095-4.476
		c1.898-6.643,0.796-13.4,0.881-20.089c0.195-15.321-0.042-30.647,0.131-45.968C134.625,323.432,133.888,319.476,133.137,314.863z"
		/>
	<path id="XMLID_188_" d="M267.509,314.668c0,1.073,0.043,2.241-0.009,3.405c-0.091,2.031,0.654,3.638,1.981,5.194
		c3.446,4.04,8.248,5.661,12.932,7.429c4.184,1.579,8.681,2.422,12.702,4.309c3.928,1.844,7.804,4.18,11.021,7.061
		c3.94,3.528,5.872,8.505,6.314,13.788c0.375,4.478,0.208,8.932-1.898,13.179c-3.326,6.705-10.253,11.345-16.927,12.827
		c-1.88,0.417-3.801,0.487-5.578,0.989c-1.877,0.53-3.68,0.883-5.614,0.903c-6.264,0.067-12.278-1.513-18.199-3.181
		c-1.754-0.494-3.404-0.658-5.254-0.851c-0.84,0.923-1.732,1.902-2.638,2.896c-1.871,0-3.656,0-5.833,0
		c0-1.423-0.128-2.888,0.022-4.324c0.706-6.748-1.451-13.343-0.992-20.086c0.809-0.809,1.633-1.633,2.464-2.464
		c0.991,0,1.989,0,3.142,0c3.147,7.061,6.271,14.251,13.288,18.994c0.157,0,0.804-0.206,1.134,0.031
		c4.559,3.27,9.809,2.114,14.67,1.763c3.265-0.236,6.398-2.288,7.923-5.897c2.326-5.507,0.63-10.287-4.19-14.117
		c-3.576-2.841-7.867-3.631-11.765-5.478c-3.045-1.443-6.59-1.858-9.582-3.38c-6.2-3.153-12.434-6.352-15.262-13.512
		c-2.457-6.222-2.695-12.105,0.012-18.45c2.083-4.883,5.707-8.038,9.688-10.8c2.44-1.693,5.719-2.207,8.657-3.137
		c1.484-0.47,3.036-0.888,4.578-0.98c2.656-0.159,5.424-0.49,7.97,0.061c3.804,0.824,7.855,0.57,11.435,2.516
		c0.783,0.425,1.909,0.166,2.827,0.411c0.725,0.194,1.373,0.679,1.971,0.991c1.046-1.153,2.031-2.24,2.625-2.895
		c2.243,0,3.695,0,5.385,0c0,0.761-0.023,1.395,0.004,2.026c0.244,5.697-0.621,11.434,0.925,17.095
		c0.461,1.686,0.071,3.604,0.071,5.729c-1.467,0.575-2.894,1.135-4.566,1.79c-2.428-1.597-3.438-4.338-4.434-7.088
		c-2.209-6.099-6.052-10.925-12.148-13.213c-7.082-2.657-12.509-1.83-17.301,3.526C268.461,312.399,268.186,313.357,267.509,314.668
		z"/>
	<path id="XMLID_187_" d="M493.606,359.498c0-5.888,0-11.672,0-17.895c2.928,0.47,5.701,0.916,8.588,1.38
		c0.816,0.494,1.685,1.329,2.699,1.584c7.101,1.782,12.234,6.555,17.262,11.391c3.32,3.193,7.894,11.85,8.344,15.014
		c0.382,2.688,0.804,5.38,0.974,8.084c0.166,2.656,0.352,5.376-0.03,7.986c-0.766,5.233-1.622,10.49-4.06,15.294
		c-0.215,0.424-0.689,0.716-1.432,1.46c-6.085-0.429-12.539-0.884-19.448-1.371c1.353-2.003,2.829-3.887,3.964-5.957
		c1.105-2.015,1.861-4.222,3.043-6.98c0-1.585-0.109-3.924,0.023-6.249c0.256-4.5-1.533-8.324-3.939-11.868
		c-3.832-5.647-5.503-6.778-12.795-9.882C495.657,361.002,494.664,360.168,493.606,359.498z"/>
	<path id="XMLID_186_" d="M158.509,278.779c-0.321,9.46-5.729,14.379-14.527,14.852c-4.326,0.233-7.626-2.455-10.725-5.485
		c-2.663-2.604-2.425-6.045-3.748-8.996c1.208-3.501,1.439-7.412,4.302-10.218c1.827-1.79,8.016-4.225,10.762-4.193
		C151.209,264.815,159.329,271.707,158.509,278.779z"/>
	<path id="XMLID_185_" d="M344.415,399.392c2.798-8.165,8.057-11.273,15.075-10.552c7.97,0.819,11.477,6.541,12.806,14.082
		c-1.327,1.917-1.057,4.695-2.317,7.147c-1.406,2.735-4.17,3.361-5.775,5.472C350.812,417.896,343.088,411.009,344.415,399.392z"/>
	<path id="XMLID_184_" d="M407.201,520.456c1.079,0.843,2.158,1.685,3.159,2.467c0.48,2.335-0.32,4.611,1.048,6.761
		c0.603,0.948,0.657,3.094-0.005,3.835c-1.833,2.052,0.266,4.984-1.894,6.756c0.348,4.41-2.611,7.638-4.417,11.136
		c-1.591,3.08-4.31,5.726-6.971,8.063c-2.435,2.139-5.595,3.431-8.185,5.421c-2.693,2.07-6.249,1.867-8.916,3.83
		c-3.592-0.399-6.942,1.791-10.566,1.007c-7.6-1.644-15.147-3.103-21.666-8.046c-5.752-4.361-11.514-12.754-13.924-18.182
		c-0.807-1.818-0.748-4.002-1.389-5.916c-1.591-4.752,0.938-9.445-0.146-14.248c1.117-0.987,2.174-1.921,3.44-3.04
		c0.363,0.733,0.803,1.207,0.702,1.479c-1.533,4.11-0.843,8.377-0.948,12.582c-0.048,1.911,0.122,3.714,0.896,5.614
		c1.654,4.061,3.557,7.835,6.082,11.503c3.231,4.693,7.631,7.435,12.322,10.078c6.737,3.795,12.693,4.698,18.73,4.074
		c4.913-0.508,9.799-1.805,14.311-3.939c4.269-2.02,7.957-5.031,10.8-8.755c1.97-2.58,3.939-5.216,5.494-8.168
		c1.205-2.288,1.805-4.807,2.146-7.059c0.69-4.556,0.262-9.291,0.153-13.948c-0.019-0.83-0.727-1.644-1.116-2.466
		C406.627,521.016,406.914,520.736,407.201,520.456z"/>
	<path id="XMLID_183_" d="M459.201,279.462c14.249,7.427,26.972,16.649,40.314,24.189c0.032,3.488-1.591,5.351-3.362,6.901
		c-6.98-3.987-13.878-7.826-20.672-11.841c-4.952-2.927-9.823-6.003-14.617-9.183c-2.177-1.444-5.131-1.877-6.508-4.979
		C455.811,283.021,457.374,281.38,459.201,279.462z"/>
	<path id="XMLID_180_" d="M385.509,536.236c-0.167,0.167-0.346,0.264-0.394,0.406c-1.635,4.774-5.262,6.701-9.883,8.308
		c-3.735,1.299-6.394,0.254-9.302-1.235c-4.791-2.453-7.911-6.253-7.352-11.84c0.776-7.751,6.12-12.188,12.654-12.103
		c2.527,0.033,5.049,0.464,7.079,0.666c2.261,2.265,4.127,4.135,6.171,6.183c0.29,1.327,0.796,2.996,0.987,4.7
		C385.653,532.956,385.509,534.629,385.509,536.236z M381.588,527.488c-7.16-8.169-11.8-6.326-16.67-2.468
		c-4.746,3.759-4.334,11.08,0.335,14.873c1.525,1.238,3.427,2.385,5.305,2.705c1.735,0.296,3.713-0.424,5.506-0.958
		c3.357-0.998,4.457-4.295,6.71-7.001C382.402,532.396,381.987,529.89,381.588,527.488z"/>
	<path id="XMLID_179_" d="M494.544,312.212c-0.083,0.792-0.176,1.677-0.322,3.075c-7.985-6.425-17.682-8.94-25.032-15.371
		c-4.069-1.554-7.734-3.851-11.38-6.182c-2.117-1.354-4.224-2.726-6.901-4.455c1.09-0.395,1.708-0.619,2.892-1.048
		c4.925,2.926,10.746,6.332,16.513,9.826c6.11,3.701,12.146,7.527,18.267,11.21C490.416,310.372,492.43,311.179,494.544,312.212z"/>
	<path id="XMLID_178_" d="M347.877,536.328c-1.854,1.073-3.056,1.769-4.75,2.749c-0.603-1.064-1.253-2.208-1.902-3.353
		c-0.774-0.999-1.143-2.668,0.743-3.881c1.267,0,2.709,0,4.261,0C346.747,533.252,347.276,534.69,347.877,536.328z"/>
	<path id="XMLID_177_" d="M375.612,560.439c-1.5,1.078-3.027,2.176-4.739,3.408c-0.813-1.316-1.606-2.6-2.395-3.877
		c0.793-1.633,1.229-3.488,3.994-3.824C374.01,556.524,375.116,558.067,375.612,560.439z"/>
	<path id="XMLID_176_" d="M397.226,533.519c0.802-0.802,1.271-1.271,1.762-1.762c1.3,0,2.621,0,3.998,0
		c0.401,0.772,0.823,1.583,1.307,2.515c-0.586,1.005-1.271,2.178-1.966,3.368c-1.24,0-2.354,0-3.486,0
		C398.32,536.312,397.816,535.027,397.226,533.519z"/>
	<path id="XMLID_163_" class="st0" d="M381.588,527.488c0.398,2.402,0.814,4.908,1.186,7.151c-2.253,2.707-3.353,6.003-6.71,7.001
		c-1.793,0.533-3.771,1.253-5.506,0.958c-1.878-0.32-3.78-1.467-5.305-2.705c-4.67-3.793-5.081-11.115-0.335-14.873
		C369.789,521.162,374.428,519.319,381.588,527.488z M366.831,537.415c1.916,0.925,3.563,1.72,4.894,2.363
		c1.582-0.416,2.877-0.532,3.933-1.096c1.104-0.589,1.977-1.609,2.32-1.902c0.689-1.904,1.107-3.058,1.443-3.987
		c-1.62-4.616-3.885-8.211-9.772-6.826c-1.307,0.975-2.812,2.099-4.185,3.123C365.648,532.116,364.965,534.922,366.831,537.415z"/>
	<path id="XMLID_162_" d="M366.831,537.415c-1.866-2.493-1.184-5.299-1.368-8.325c1.373-1.025,2.878-2.148,4.185-3.123
		c5.887-1.384,8.152,2.21,9.772,6.826c-0.336,0.928-0.753,2.082-1.443,3.987c-0.343,0.293-1.216,1.313-2.32,1.902
		c-1.056,0.564-2.351,0.68-3.933,1.096C370.394,539.135,368.747,538.34,366.831,537.415z"/>
</g>
<g id="XMLID_2_">
</g>
<g id="XMLID_3_">
</g>
<g id="XMLID_4_">
</g>
<g id="XMLID_5_">
</g>
<g id="XMLID_6_">
</g>
<g id="XMLID_7_">
</g>
</svg>
